<?xml version="1.0" standalone="no"?>
<!DOCTYPE svg PUBLIC "-//W3C//DTD SVG 20010904//EN"
 "http://www.w3.org/TR/2001/REC-SVG-20010904/DTD/svg10.dtd">
<svg version="1.0" xmlns="http://www.w3.org/2000/svg"
 width="1052.000000pt" height="302.000000pt" viewBox="0 0 1052.000000 302.000000"
 preserveAspectRatio="xMidYMid meet">

<g transform="translate(0.000000,302.000000) scale(0.100000,-0.100000)"
fill="#000000" stroke="none">
<path d="M573 2259 l-573 -749 241 -315 241 -315 334 0 c184 0 334 2 334 4 0
3 -106 143 -235 312 -129 168 -235 310 -235 314 0 4 108 148 240 320 l240 313
0 434 c0 238 -3 433 -7 432 -5 0 -266 -338 -580 -750z"/>
<path d="M3220 2064 c-206 -44 -363 -191 -415 -390 -55 -212 -3 -446 129 -577
185 -185 548 -214 753 -60 37 27 33 28 146 -44 37 -24 69 -43 72 -43 3 0 4
150 3 333 l-3 332 -290 0 -290 0 -3 -107 -3 -108 185 0 186 0 -7 -32 c-16 -87
-86 -166 -173 -199 -46 -18 -72 -20 -160 -17 -122 5 -175 23 -234 83 -67 67
-80 111 -80 265 0 116 3 141 21 181 48 104 128 161 259 181 127 20 241 -9 337
-85 l39 -30 80 80 81 81 -34 31 c-51 47 -184 108 -271 126 -94 18 -240 18
-328 -1z"/>
<path d="M6825 2070 c-157 -31 -273 -113 -311 -217 -19 -55 -17 -150 5 -198
33 -73 125 -139 248 -179 29 -10 126 -37 216 -60 236 -61 295 -103 261 -185
-19 -45 -84 -72 -190 -79 -140 -8 -271 30 -375 110 l-46 36 -83 -83 -82 -82
42 -36 c170 -145 492 -201 732 -127 253 78 337 331 167 501 -59 59 -160 102
-364 155 -183 47 -281 85 -299 116 -19 32 5 71 59 98 45 23 62 25 170 25 114
0 123 -2 186 -31 37 -18 85 -49 108 -70 l42 -38 82 83 82 82 -49 44 c-108 96
-261 146 -445 144 -64 -1 -134 -5 -156 -9z"/>
<path d="M4276 1525 c-141 -300 -259 -552 -262 -560 -5 -13 12 -15 113 -15
l119 0 61 130 62 130 266 -2 265 -3 59 -125 59 -125 122 -3 c67 -1 120 1 118
5 -3 4 -121 257 -264 560 l-259 553 -101 0 -101 0 -257 -545z m472 3 l51 -108
-165 0 c-93 0 -164 4 -162 9 2 5 39 84 83 176 l80 168 31 -69 c18 -38 55 -117
82 -176z"/>
<path d="M5302 1698 l4 -373 27 -80 c55 -165 170 -261 351 -296 74 -14 243
-11 314 6 179 42 295 158 337 336 12 51 15 138 15 422 l0 357 -115 0 -115 0 0
-302 c0 -167 -5 -336 -10 -377 -20 -156 -98 -229 -253 -238 -146 -10 -245 37
-291 137 -20 43 -21 65 -24 413 l-3 367 -120 0 -120 0 3 -372z"/>
<path d="M7680 1510 l0 -560 120 0 120 0 0 560 0 560 -120 0 -120 0 0 -560z"/>
<path d="M8100 1718 c0 -393 6 -446 61 -548 57 -108 161 -184 291 -215 82 -19
265 -19 347 0 135 32 241 115 296 231 49 103 55 160 55 537 l0 347 -120 0
-120 0 0 -340 c0 -207 -4 -359 -11 -390 -14 -68 -62 -129 -124 -160 -44 -22
-63 -25 -155 -25 -99 0 -108 2 -159 31 -42 23 -62 43 -85 85 l-31 54 -5 370
-5 370 -117 3 -118 3 0 -353z"/>
<path d="M9320 1510 l0 -560 120 0 120 0 0 308 0 307 179 -308 179 -308 49 83
c27 46 107 184 178 306 l130 224 3 -306 2 -306 120 0 120 0 0 560 0 560 -103
0 -103 0 -194 -345 c-107 -189 -197 -344 -200 -345 -3 0 -84 138 -180 308 -95
169 -184 324 -197 345 l-23 37 -100 0 -100 0 0 -560z"/>
<path d="M1337 1748 l-178 -233 239 -5 239 -5 -238 -309 -239 -309 0 -439 0
-440 23 29 c13 15 272 353 576 750 l552 723 -178 232 -179 233 -219 3 -220 2
-178 -232z"/>
</g>
</svg>
