<?xml version="1.0" standalone="no"?>
<!DOCTYPE svg PUBLIC "-//W3C//DTD SVG 20010904//EN"
 "http://www.w3.org/TR/2001/REC-SVG-20010904/DTD/svg10.dtd">
<svg version="1.0" xmlns="http://www.w3.org/2000/svg"
 width="272.000000pt" height="355.000000pt" viewBox="0 0 272.000000 355.000000"
 preserveAspectRatio="xMidYMid meet">

<g transform="translate(0.000000,355.000000) scale(0.100000,-0.100000)"
fill="#000000" stroke="none">
<path d="M693 2678 c-363 -475 -666 -872 -673 -884 -12 -19 10 -50 266 -387
l279 -366 397 0 398 -1 2 -512 3 -512 669 875 c368 480 669 879 670 885 1 6
-93 133 -207 283 l-208 271 -256 -2 -256 -3 -207 -270 -207 -270 279 -3 c153
-1 278 -5 278 -8 0 -10 -554 -724 -561 -724 -14 0 -560 722 -556 734 3 6 129
173 281 371 l276 360 0 513 c0 281 -2 512 -4 512 -2 0 -300 -388 -663 -862z"/>
</g>
</svg>
